<mxfile host="app.diagrams.net" modified="2023-09-27T00:19:25.537Z" agent="Mozilla/5.0 (Macintosh; Intel Mac OS X 10_15_7) AppleWebKit/605.1.15 (KHTML, like Gecko) Version/16.5.1 Safari/605.1.15" etag="gnA_eJY3uxcgprLO8e1U" version="21.7.5" type="device">
  <diagram name="Page-1" id="e7e014a7-5840-1c2e-5031-d8a46d1fe8dd">
    <mxGraphModel dx="741" dy="562" grid="1" gridSize="10" guides="1" tooltips="1" connect="1" arrows="1" fold="1" page="1" pageScale="1" pageWidth="1169" pageHeight="826" background="none" math="0" shadow="0">
      <root>
        <mxCell id="0" />
        <mxCell id="1" parent="0" />
        <mxCell id="5HN4UKg1Xnu_4getq7X6-49" value="Pharmacy Shop Management System" style="swimlane;childLayout=stackLayout;resizeParent=1;resizeParentMax=0;startSize=20;html=1;" parent="1" vertex="1">
          <mxGeometry x="220" y="60" width="590" height="780" as="geometry" />
        </mxCell>
        <mxCell id="5HN4UKg1Xnu_4getq7X6-50" value="Staff" style="swimlane;startSize=20;html=1;" parent="5HN4UKg1Xnu_4getq7X6-49" vertex="1">
          <mxGeometry y="20" width="220" height="760" as="geometry" />
        </mxCell>
        <mxCell id="5HN4UKg1Xnu_4getq7X6-69" style="rounded=0;orthogonalLoop=1;jettySize=auto;html=1;exitX=0.493;exitY=0.867;exitDx=0;exitDy=0;entryX=0.5;entryY=0;entryDx=0;entryDy=0;exitPerimeter=0;" parent="5HN4UKg1Xnu_4getq7X6-50" source="5" target="5HN4UKg1Xnu_4getq7X6-56" edge="1">
          <mxGeometry relative="1" as="geometry" />
        </mxCell>
        <mxCell id="5" value="" style="ellipse;shape=startState;fillColor=#000000;strokeColor=none;" parent="5HN4UKg1Xnu_4getq7X6-50" vertex="1">
          <mxGeometry x="80" y="40" width="30" height="30" as="geometry" />
        </mxCell>
        <mxCell id="5HN4UKg1Xnu_4getq7X6-56" value="Click Sale&lt;br&gt;View" style="rounded=1;whiteSpace=wrap;html=1;" parent="5HN4UKg1Xnu_4getq7X6-50" vertex="1">
          <mxGeometry x="45" y="110" width="100" height="40" as="geometry" />
        </mxCell>
        <mxCell id="5HN4UKg1Xnu_4getq7X6-98" value="Scan Bar&lt;br&gt;Code" style="rounded=1;whiteSpace=wrap;html=1;" parent="5HN4UKg1Xnu_4getq7X6-50" vertex="1">
          <mxGeometry x="42.5" y="180" width="105" height="40" as="geometry" />
        </mxCell>
        <mxCell id="m0uHN0fnXdyNOFm_q_yZ-98" style="edgeStyle=orthogonalEdgeStyle;rounded=0;orthogonalLoop=1;jettySize=auto;html=1;exitX=0.5;exitY=1;exitDx=0;exitDy=0;entryX=0.5;entryY=0;entryDx=0;entryDy=0;" edge="1" parent="5HN4UKg1Xnu_4getq7X6-50" source="m0uHN0fnXdyNOFm_q_yZ-54" target="m0uHN0fnXdyNOFm_q_yZ-97">
          <mxGeometry relative="1" as="geometry" />
        </mxCell>
        <mxCell id="m0uHN0fnXdyNOFm_q_yZ-54" value="Charge&lt;br&gt;Quotation" style="rounded=1;whiteSpace=wrap;html=1;" vertex="1" parent="5HN4UKg1Xnu_4getq7X6-50">
          <mxGeometry x="42.5" y="293" width="105" height="40" as="geometry" />
        </mxCell>
        <mxCell id="m0uHN0fnXdyNOFm_q_yZ-97" value="Click Add&lt;br&gt;Button" style="rounded=1;whiteSpace=wrap;html=1;" vertex="1" parent="5HN4UKg1Xnu_4getq7X6-50">
          <mxGeometry x="42.5" y="380" width="105" height="40" as="geometry" />
        </mxCell>
        <mxCell id="m0uHN0fnXdyNOFm_q_yZ-102" value="Click Pay&lt;br&gt;Button" style="rounded=1;whiteSpace=wrap;html=1;" vertex="1" parent="5HN4UKg1Xnu_4getq7X6-50">
          <mxGeometry x="45" y="450" width="105" height="40" as="geometry" />
        </mxCell>
        <mxCell id="m0uHN0fnXdyNOFm_q_yZ-76" style="edgeStyle=orthogonalEdgeStyle;rounded=0;orthogonalLoop=1;jettySize=auto;html=1;exitX=1;exitY=0.5;exitDx=0;exitDy=0;entryX=0;entryY=0.5;entryDx=0;entryDy=0;" edge="1" parent="5HN4UKg1Xnu_4getq7X6-49" source="5HN4UKg1Xnu_4getq7X6-56" target="m0uHN0fnXdyNOFm_q_yZ-75">
          <mxGeometry relative="1" as="geometry" />
        </mxCell>
        <mxCell id="m0uHN0fnXdyNOFm_q_yZ-77" style="edgeStyle=orthogonalEdgeStyle;rounded=0;orthogonalLoop=1;jettySize=auto;html=1;exitX=0.5;exitY=1;exitDx=0;exitDy=0;entryX=1;entryY=0.5;entryDx=0;entryDy=0;" edge="1" parent="5HN4UKg1Xnu_4getq7X6-49" source="m0uHN0fnXdyNOFm_q_yZ-75" target="5HN4UKg1Xnu_4getq7X6-98">
          <mxGeometry relative="1" as="geometry" />
        </mxCell>
        <mxCell id="m0uHN0fnXdyNOFm_q_yZ-92" style="edgeStyle=orthogonalEdgeStyle;rounded=0;orthogonalLoop=1;jettySize=auto;html=1;exitX=0.5;exitY=1;exitDx=0;exitDy=0;entryX=0;entryY=0.5;entryDx=0;entryDy=0;" edge="1" parent="5HN4UKg1Xnu_4getq7X6-49" source="5HN4UKg1Xnu_4getq7X6-98" target="m0uHN0fnXdyNOFm_q_yZ-91">
          <mxGeometry relative="1" as="geometry" />
        </mxCell>
        <mxCell id="m0uHN0fnXdyNOFm_q_yZ-93" style="edgeStyle=orthogonalEdgeStyle;rounded=0;orthogonalLoop=1;jettySize=auto;html=1;exitX=0.5;exitY=1;exitDx=0;exitDy=0;entryX=1;entryY=0.5;entryDx=0;entryDy=0;" edge="1" parent="5HN4UKg1Xnu_4getq7X6-49" source="m0uHN0fnXdyNOFm_q_yZ-91" target="m0uHN0fnXdyNOFm_q_yZ-54">
          <mxGeometry relative="1" as="geometry" />
        </mxCell>
        <mxCell id="m0uHN0fnXdyNOFm_q_yZ-100" style="edgeStyle=orthogonalEdgeStyle;rounded=0;orthogonalLoop=1;jettySize=auto;html=1;exitX=1;exitY=0.5;exitDx=0;exitDy=0;entryX=0;entryY=0.5;entryDx=0;entryDy=0;" edge="1" parent="5HN4UKg1Xnu_4getq7X6-49" source="m0uHN0fnXdyNOFm_q_yZ-97" target="m0uHN0fnXdyNOFm_q_yZ-99">
          <mxGeometry relative="1" as="geometry" />
        </mxCell>
        <mxCell id="m0uHN0fnXdyNOFm_q_yZ-103" style="edgeStyle=orthogonalEdgeStyle;rounded=0;orthogonalLoop=1;jettySize=auto;html=1;exitX=0.5;exitY=1;exitDx=0;exitDy=0;entryX=1;entryY=0.5;entryDx=0;entryDy=0;" edge="1" parent="5HN4UKg1Xnu_4getq7X6-49" source="m0uHN0fnXdyNOFm_q_yZ-99" target="m0uHN0fnXdyNOFm_q_yZ-102">
          <mxGeometry relative="1" as="geometry" />
        </mxCell>
        <mxCell id="m0uHN0fnXdyNOFm_q_yZ-104" style="edgeStyle=orthogonalEdgeStyle;rounded=0;orthogonalLoop=1;jettySize=auto;html=1;exitX=0.5;exitY=1;exitDx=0;exitDy=0;entryX=0.5;entryY=0;entryDx=0;entryDy=0;" edge="1" parent="5HN4UKg1Xnu_4getq7X6-49" source="m0uHN0fnXdyNOFm_q_yZ-102" target="m0uHN0fnXdyNOFm_q_yZ-53">
          <mxGeometry relative="1" as="geometry" />
        </mxCell>
        <mxCell id="5HN4UKg1Xnu_4getq7X6-51" value="System" style="swimlane;startSize=20;html=1;" parent="5HN4UKg1Xnu_4getq7X6-49" vertex="1">
          <mxGeometry x="220" y="20" width="370" height="760" as="geometry" />
        </mxCell>
        <mxCell id="5HN4UKg1Xnu_4getq7X6-85" value="[No]" style="text;html=1;strokeColor=none;fillColor=none;align=center;verticalAlign=middle;whiteSpace=wrap;rounded=0;" parent="5HN4UKg1Xnu_4getq7X6-51" vertex="1">
          <mxGeometry x="197.5" y="518" width="76" height="30" as="geometry" />
        </mxCell>
        <mxCell id="m0uHN0fnXdyNOFm_q_yZ-81" style="edgeStyle=orthogonalEdgeStyle;rounded=0;orthogonalLoop=1;jettySize=auto;html=1;exitX=0.5;exitY=1;exitDx=0;exitDy=0;entryX=0.5;entryY=0;entryDx=0;entryDy=0;" edge="1" parent="5HN4UKg1Xnu_4getq7X6-51" source="m0uHN0fnXdyNOFm_q_yZ-53" target="m0uHN0fnXdyNOFm_q_yZ-79">
          <mxGeometry relative="1" as="geometry" />
        </mxCell>
        <mxCell id="m0uHN0fnXdyNOFm_q_yZ-96" style="rounded=0;orthogonalLoop=1;jettySize=auto;html=1;exitX=1;exitY=0.5;exitDx=0;exitDy=0;" edge="1" parent="5HN4UKg1Xnu_4getq7X6-51" source="m0uHN0fnXdyNOFm_q_yZ-53">
          <mxGeometry relative="1" as="geometry">
            <mxPoint x="150" y="170" as="targetPoint" />
            <Array as="points">
              <mxPoint x="260" y="544" />
              <mxPoint x="260" y="170" />
            </Array>
          </mxGeometry>
        </mxCell>
        <mxCell id="m0uHN0fnXdyNOFm_q_yZ-53" value="" style="rhombus;whiteSpace=wrap;html=1;" vertex="1" parent="5HN4UKg1Xnu_4getq7X6-51">
          <mxGeometry x="165" y="530" width="40" height="27" as="geometry" />
        </mxCell>
        <mxCell id="m0uHN0fnXdyNOFm_q_yZ-72" value="" style="ellipse;html=1;shape=endState;fillColor=#000000;strokeColor=#000000;" vertex="1" parent="5HN4UKg1Xnu_4getq7X6-51">
          <mxGeometry x="170" y="707.5" width="30" height="30" as="geometry" />
        </mxCell>
        <mxCell id="m0uHN0fnXdyNOFm_q_yZ-75" value="Display&lt;br&gt;Sale View" style="rounded=1;whiteSpace=wrap;html=1;" vertex="1" parent="5HN4UKg1Xnu_4getq7X6-51">
          <mxGeometry x="97.5" y="110" width="105" height="40" as="geometry" />
        </mxCell>
        <mxCell id="m0uHN0fnXdyNOFm_q_yZ-95" style="edgeStyle=orthogonalEdgeStyle;rounded=0;orthogonalLoop=1;jettySize=auto;html=1;exitX=0.5;exitY=1;exitDx=0;exitDy=0;entryX=0.5;entryY=0;entryDx=0;entryDy=0;" edge="1" parent="5HN4UKg1Xnu_4getq7X6-51" source="m0uHN0fnXdyNOFm_q_yZ-79" target="m0uHN0fnXdyNOFm_q_yZ-72">
          <mxGeometry relative="1" as="geometry" />
        </mxCell>
        <mxCell id="m0uHN0fnXdyNOFm_q_yZ-79" value="Genarate&lt;br&gt;Invoice" style="rounded=1;whiteSpace=wrap;html=1;" vertex="1" parent="5HN4UKg1Xnu_4getq7X6-51">
          <mxGeometry x="132.5" y="614" width="105" height="40" as="geometry" />
        </mxCell>
        <mxCell id="m0uHN0fnXdyNOFm_q_yZ-84" value="[Yes]" style="text;html=1;strokeColor=none;fillColor=none;align=center;verticalAlign=middle;whiteSpace=wrap;rounded=0;" vertex="1" parent="5HN4UKg1Xnu_4getq7X6-51">
          <mxGeometry x="105.5" y="568" width="115" height="30" as="geometry" />
        </mxCell>
        <mxCell id="m0uHN0fnXdyNOFm_q_yZ-91" value="Display&lt;br&gt;Relavent Infomation" style="rounded=1;whiteSpace=wrap;html=1;" vertex="1" parent="5HN4UKg1Xnu_4getq7X6-51">
          <mxGeometry x="83" y="230" width="122.5" height="40" as="geometry" />
        </mxCell>
        <mxCell id="m0uHN0fnXdyNOFm_q_yZ-99" value="Display Sales&lt;br&gt;&amp;amp; Update Total" style="rounded=1;whiteSpace=wrap;html=1;" vertex="1" parent="5HN4UKg1Xnu_4getq7X6-51">
          <mxGeometry x="85" y="380" width="130" height="40" as="geometry" />
        </mxCell>
      </root>
    </mxGraphModel>
  </diagram>
</mxfile>
